<svg width="24" height="24" viewBox="0 0 24 24" fill="none" xmlns="http://www.w3.org/2000/svg">
<path d="M9.01005 11.75C9.42426 11.75 9.76005 11.4142 9.76005 11C9.76005 10.5858 9.42426 10.25 9.01005 10.25V11.75ZM9.00005 10.25C8.58583 10.25 8.25005 10.5858 8.25005 11C8.25005 11.4142 8.58583 11.75 9.00005 11.75V10.25ZM15.01 11.75C15.4243 11.75 15.76 11.4142 15.76 11C15.76 10.5858 15.4243 10.25 15.01 10.25V11.75ZM15 10.25C14.5858 10.25 14.25 10.5858 14.25 11C14.25 11.4142 14.5858 11.75 15 11.75V10.25ZM6.77814 8.75H17.222V7.25H6.77814V8.75ZM19.4653 10.8274L20.0038 17.8274L21.4994 17.7124L20.9609 10.7124L19.4653 10.8274ZM17.7604 20.25H6.23968V21.75H17.7604V20.25ZM3.99631 17.8274L4.53477 10.8274L3.03919 10.7124L2.50073 17.7124L3.99631 17.8274ZM6.23968 20.25C4.92903 20.25 3.89579 19.1342 3.99631 17.8274L2.50073 17.7124C2.33319 19.8904 4.05527 21.75 6.23968 21.75V20.25ZM20.0038 17.8274C20.1043 19.1342 19.0711 20.25 17.7604 20.25V21.75C19.9448 21.75 21.6669 19.8904 21.4994 17.7124L20.0038 17.8274ZM17.222 8.75C18.3977 8.75 19.3752 9.65519 19.4653 10.8274L20.9609 10.7124C20.8106 8.75865 19.1815 7.25 17.222 7.25V8.75ZM6.77814 7.25C4.81863 7.25 3.18947 8.75865 3.03919 10.7124L4.53477 10.8274C4.62494 9.65519 5.60244 8.75 6.77814 8.75V7.25ZM14.25 6V8H15.75V6H14.25ZM9.75005 8V6H8.25005V8H9.75005ZM12 3.75C13.2427 3.75 14.25 4.75736 14.25 6H15.75C15.75 3.92893 14.0711 2.25 12 2.25V3.75ZM12 2.25C9.92898 2.25 8.25005 3.92893 8.25005 6H9.75005C9.75005 4.75736 10.7574 3.75 12 3.75V2.25ZM9.01005 10.25H9.00005V11.75H9.01005V10.25ZM15.01 10.25H15V11.75H15.01V10.25Z" fill="#252432"/>
</svg>
