<svg width="24" height="24" viewBox="0 0 24 24" fill="none" xmlns="http://www.w3.org/2000/svg">
<path d="M10.2442 4.86956C11.0022 3.47968 12.9979 3.47968 13.7559 4.86956L14.9723 7.09993C15.2599 7.62738 15.7694 7.99758 16.36 8.10817L18.8571 8.57579C20.4132 8.86719 21.0299 10.7653 19.9422 11.9157L18.1969 13.7617C17.7842 14.1983 17.5895 14.7973 17.6668 15.3931L17.9938 17.9125C18.1975 19.4824 16.5829 20.6555 15.1527 19.9766L12.8577 18.8871C12.3149 18.6295 11.6851 18.6295 11.1424 18.8871L8.84732 19.9766C7.41713 20.6555 5.80257 19.4824 6.00629 17.9125L6.3332 15.3931C6.41051 14.7973 6.21588 14.1983 5.80313 13.7617L4.05781 11.9157C2.97019 10.7653 3.58689 8.86719 5.14299 8.57579L7.64007 8.10817C8.2306 7.99758 8.74014 7.62738 9.02779 7.09993L10.2442 4.86956Z" stroke="#252432" stroke-width="1.5" stroke-linejoin="round"/>
</svg>
