<svg width="48" height="48" viewBox="0 0 48 48" fill="none" xmlns="http://www.w3.org/2000/svg">
<circle cx="24" cy="24" r="24" fill="#F5F8FF"/>
<rect width="24" height="24" transform="translate(12 12)" fill="#F5F8FF"/>
<path d="M24 30C20.6906 30 18 27.3109 18 24.0023C18 20.6891 20.6906 18 24 18C27.3094 18 30 20.6891 30 23.9977C30 27.3062 27.3094 30 24 30ZM29.0578 24.8189C28.8844 24.7626 27.4734 24.3449 25.8656 24.5984C26.5359 26.438 26.8078 27.9398 26.8594 28.2495C28.0125 27.4752 28.8328 26.2456 29.0578 24.8189ZM26.0016 28.7235C25.9266 28.273 25.6266 26.7055 24.9094 24.8377C24.9 24.8424 24.8859 24.8471 24.8766 24.8471C21.9844 25.8561 20.9484 27.86 20.8547 28.0477C21.7219 28.7235 22.8141 29.1271 24 29.1271C24.7078 29.1318 25.3875 28.9863 26.0016 28.7235ZM20.1938 27.4329C20.3109 27.2358 21.7172 24.9081 24.3609 24.0493C24.4266 24.0258 24.4969 24.007 24.5625 23.9883C24.4359 23.6973 24.2953 23.4063 24.1453 23.1201C21.5859 23.885 19.1016 23.8522 18.8766 23.8475C18.8766 23.8991 18.8719 23.9507 18.8719 24.0023C18.8766 25.3211 19.3734 26.5225 20.1938 27.4329ZM18.9844 22.9558C19.2141 22.9605 21.3234 22.9699 23.7234 22.3316C22.875 20.8205 21.9562 19.5534 21.825 19.3704C20.3859 20.0461 19.3172 21.3696 18.9844 22.9558ZM22.8 19.0231C22.9406 19.2108 23.8734 20.4779 24.7125 22.0219C26.5359 21.3367 27.3047 20.3043 27.3984 20.1729C26.4938 19.3704 25.3031 18.8823 24 18.8823C23.5875 18.8823 23.1844 18.9339 22.8 19.0231ZM27.9656 20.7642C27.8578 20.9097 27 22.0125 25.1063 22.7869C25.2234 23.0309 25.3406 23.2796 25.4484 23.5284C25.4859 23.6175 25.5234 23.7067 25.5609 23.7912C27.2672 23.5753 28.9594 23.9226 29.1281 23.9554C29.1141 22.7493 28.6828 21.6371 27.9656 20.7642Z" fill="#151515"/>
</svg>
