<svg width="20" height="21" viewBox="0 0 20 21" fill="none" xmlns="http://www.w3.org/2000/svg">
<path d="M0 10.2692C0 8.35322 0.437666 6.63174 1.32272 5.1145C2.22723 3.59726 3.43325 2.41069 4.96021 1.56454C6.49691 0.698935 8.17949 0.270996 10.008 0.270996C12.0893 0.270996 13.9469 0.786469 15.5615 1.81741C17.1954 2.82891 18.382 4.27807 19.1114 6.15517H15.2502C14.7445 5.12422 14.0345 4.35588 13.1397 3.8404C12.2352 3.33466 11.1945 3.08178 10.008 3.08178C8.71441 3.08178 7.55703 3.37356 6.54553 3.95711C5.53404 4.54067 4.73652 5.3771 4.15296 6.4664C3.58886 7.5557 3.30681 8.82007 3.30681 10.2692C3.30681 11.7184 3.58886 12.9828 4.15296 14.0721C4.73652 15.1614 5.53404 16.0075 6.54553 16.6105C7.55703 17.1941 8.71441 17.4858 10.008 17.4858C11.1945 17.4858 12.2352 17.233 13.1397 16.7272C14.0442 16.2215 14.7445 15.4531 15.2502 14.4125H19.1114C18.382 16.2896 17.1954 17.7387 15.5615 18.7502C13.9469 19.7617 12.099 20.2675 10.008 20.2675C8.16976 20.2675 6.48718 19.8492 4.96021 19.0031C3.44297 18.1375 2.22723 16.9412 1.32272 15.424C0.437666 13.9067 0 12.1852 0 10.2692Z" fill="black"/>
</svg>
