<svg width="48" height="48" viewBox="0 0 48 48" fill="none" xmlns="http://www.w3.org/2000/svg">
<circle cx="24" cy="24" r="24" fill="#F5F8FF"/>
<rect width="24" height="24" transform="translate(12 12)" fill="#F5F8FF"/>
<path d="M29.5373 21.0046C28.8514 21.0046 28.2185 20.7774 27.7103 20.3941C27.1275 19.9547 26.7087 19.3101 26.5608 18.5671C26.5242 18.3836 26.5045 18.1941 26.5026 18H24.5433V23.3539L24.5409 26.2865C24.5409 27.0705 24.0304 27.7353 23.3226 27.9691C23.1172 28.0369 22.8954 28.0691 22.6644 28.0564C22.3696 28.0402 22.0933 27.9512 21.8532 27.8076C21.3421 27.5019 20.9957 26.9475 20.9863 26.3132C20.9715 25.3219 21.7729 24.5137 22.7635 24.5137C22.959 24.5137 23.1468 24.5456 23.3226 24.6036V23.1403V22.6142C23.1372 22.5868 22.9485 22.5724 22.7576 22.5724C21.6734 22.5724 20.6593 23.0231 19.9344 23.8351C19.3865 24.4487 19.0579 25.2315 19.0072 26.0524C18.9408 27.1308 19.3354 28.1559 20.1006 28.9122C20.2131 29.0233 20.3311 29.1263 20.4546 29.2214C21.1107 29.7263 21.9128 30 22.7576 30C22.9485 30 23.1372 29.9859 23.3226 29.9585C24.1118 29.8416 24.84 29.4803 25.4146 28.9122C26.1207 28.2144 26.5108 27.2878 26.515 26.3017L26.505 21.9225C26.8418 22.1823 27.2101 22.3973 27.6054 22.5642C28.2202 22.8236 28.872 22.9551 29.5429 22.9548V21.5321V21.0042L29.5373 21.0046Z" fill="#151515"/>
</svg>
