<svg width="48" height="48" viewBox="0 0 48 48" fill="none" xmlns="http://www.w3.org/2000/svg">
<circle cx="24" cy="24" r="24" fill="#F5F8FF"/>
<rect width="24" height="24" transform="translate(12 12)" fill="#F5F8FF"/>
<path fill-rule="evenodd" clip-rule="evenodd" d="M21.3438 29.9268C22.2305 29.9807 23.1161 30.0019 24 29.9999C24.8838 30.0019 25.7695 29.9807 26.6562 29.9268C27.4029 29.8814 28.1113 29.6341 28.7019 29.1524C29.2708 28.6885 29.6277 28.0671 29.8053 27.371C29.9695 26.728 29.9783 26.0816 29.9863 25.4977L29.9865 25.4862C29.9932 24.9924 29.9988 24.497 30 24.0011V24V23.9989C29.9988 23.503 29.9932 23.0076 29.9865 22.5138L29.9863 22.5023C29.9783 21.9184 29.9694 21.272 29.8053 20.6289C29.6277 19.9328 29.2708 19.3115 28.7019 18.8476C28.1113 18.3659 27.4029 18.1186 26.6562 18.0732C25.7695 18.0193 24.8838 17.9981 24 18.0001C23.1161 17.9981 22.2305 18.0193 21.3438 18.0732C20.5971 18.1186 19.8887 18.3659 19.298 18.8476C18.7291 19.3115 18.3723 19.9329 18.1946 20.6289C18.0305 21.2721 18.0217 21.9186 18.0137 22.5025L18.0135 22.5138C18.0068 23.0076 18.0012 23.503 18 23.9989V24V24.0011C18.0012 24.497 18.0068 24.9924 18.0135 25.4862L18.0137 25.4975C18.0217 26.0814 18.0305 26.7279 18.1946 27.3711C18.3723 28.0671 18.7291 28.6885 19.298 29.1524C19.8887 29.6341 20.5971 29.8814 21.3438 29.9268ZM23.9989 29.0624C23.131 29.0644 22.265 29.0436 21.4008 28.991C20.827 28.9561 20.3121 28.7696 19.8906 28.4259C19.499 28.1065 19.2385 27.6699 19.1031 27.1393C18.9697 26.6168 18.9592 26.0767 18.951 25.4734C18.9443 24.9811 18.9387 24.4902 18.9375 24C18.9387 23.5098 18.9443 23.0189 18.951 22.5266C18.9592 21.9233 18.9697 21.3832 19.1031 20.8607C19.2385 20.3301 19.499 19.8935 19.8906 19.5741C20.3121 19.2304 20.827 19.0439 21.4008 19.009C22.265 18.9564 23.131 18.9356 23.9989 18.9376H24H24.0011C24.8689 18.9356 25.735 18.9564 26.5992 19.009C27.173 19.0439 27.6879 19.2304 28.1094 19.5741C28.501 19.8935 28.7615 20.3301 28.8969 20.8607C29.0302 21.3832 29.0407 21.9233 29.049 22.5266C29.0557 23.0189 29.0613 23.5097 29.0625 24C29.0613 24.4903 29.0557 24.9811 29.049 25.4734C29.0407 26.0767 29.0302 26.6168 28.8969 27.1393C28.7615 27.6699 28.501 28.1065 28.1094 28.4259C27.6879 28.7696 27.173 28.9561 26.5992 28.991C25.735 29.0436 24.8689 29.0644 24.0011 29.0624H24H23.9989Z" fill="#151515"/>
<path fill-rule="evenodd" clip-rule="evenodd" d="M21.0857 24C21.0857 25.6095 22.3905 26.9143 24 26.9143C25.6095 26.9143 26.9143 25.6095 26.9143 24C26.9143 22.3905 25.6095 21.0857 24 21.0857C22.3905 21.0857 21.0857 22.3905 21.0857 24ZM24 25.9817C22.9055 25.9817 22.0183 25.0945 22.0183 24C22.0183 22.9055 22.9055 22.0183 24 22.0183C25.0945 22.0183 25.9817 22.9055 25.9817 24C25.9817 25.0945 25.0945 25.9817 24 25.9817Z" fill="#151515"/>
<path d="M27.9429 20.7428C27.9429 21.1215 27.6359 21.4286 27.2572 21.4286C26.8785 21.4286 26.5715 21.1215 26.5715 20.7428C26.5715 20.3641 26.8785 20.0571 27.2572 20.0571C27.6359 20.0571 27.9429 20.3641 27.9429 20.7428Z" fill="#151515"/>
</svg>
