<svg width="154" height="22" viewBox="0 0 154 22" fill="none" xmlns="http://www.w3.org/2000/svg">
<path d="M0.11145 13.2843C0.11145 11.7281 0.432405 10.347 1.07431 9.14102C1.73568 7.93501 2.61101 7.01105 3.71976 6.34969C4.84797 5.66887 6.08316 5.33819 7.43506 5.33819C8.66052 5.33819 9.72064 5.58134 10.6154 6.06764C11.5394 6.53448 12.2688 7.12776 12.8135 7.84748V5.59107H16.0522V21.1136H12.8135V18.7988C12.2688 19.5283 11.5297 20.141 10.5863 20.6273C9.64284 21.1136 8.57299 21.3568 7.3767 21.3568C6.04425 21.3568 4.81879 21.0164 3.71004 20.3453C2.60128 19.6547 1.71623 18.6919 1.06459 17.4664C0.432407 16.2507 0.11145 14.8501 0.11145 13.2843ZM12.8232 13.3426C12.8232 12.2728 12.5995 11.3391 12.1424 10.5513C11.7145 9.76348 11.1406 9.16047 10.4209 8.75198C9.71092 8.3435 8.93285 8.12953 8.10615 8.12953C7.27944 8.12953 6.5111 8.33377 5.79138 8.75198C5.08139 9.15075 4.49783 9.7343 4.04072 10.5318C3.61278 11.3002 3.38908 12.2241 3.38908 13.294C3.38908 14.3638 3.60305 15.3072 4.04072 16.1145C4.48811 16.9217 5.07166 17.5442 5.79138 17.9721C6.52082 18.3806 7.2989 18.5946 8.10615 18.5946C8.93285 18.5946 9.70119 18.3904 10.4209 17.9721C11.1309 17.5637 11.7047 16.9607 12.1424 16.1729C12.5898 15.3559 12.8232 14.4125 12.8232 13.3426ZM23.0451 8.21706V16.8148C23.0451 17.3983 23.1813 17.8165 23.4439 18.0791C23.7259 18.3223 24.1928 18.4487 24.8542 18.4487H26.8188V21.1233H24.2803C22.8312 21.1233 21.7224 20.7829 20.9541 20.1118C20.1857 19.431 19.7967 18.332 19.7967 16.8148V8.21706H17.9682V5.60079H19.7967V1.73961H23.0354V5.60079H26.8188V8.21706H23.0451ZM43.0221 12.9828C43.0221 13.5663 42.9832 14.0915 42.9054 14.5584H31.0398C31.1371 15.7935 31.5942 16.7953 32.4209 17.5442C33.2476 18.2931 34.2591 18.6724 35.4651 18.6724C37.1963 18.6724 38.4121 17.9527 39.1318 16.5035H42.5942C42.1274 17.9332 41.2715 19.1101 40.0266 20.0243C38.8011 20.9288 37.2839 21.3762 35.4651 21.3762C33.9771 21.3762 32.6446 21.0455 31.4678 20.3939C30.3007 19.7131 29.3864 18.7794 28.7056 17.5734C28.0443 16.3479 27.7233 14.9474 27.7233 13.3426C27.7233 11.7378 28.0443 10.347 28.6862 9.14102C29.3475 7.91556 30.252 6.98187 31.4191 6.32051C32.6057 5.65915 33.9576 5.33819 35.4748 5.33819C36.9435 5.33819 38.2467 5.65915 39.3944 6.30106C40.542 6.94297 41.4368 7.83775 42.069 9.00486C42.7012 10.1525 43.0221 11.4752 43.0221 12.9828ZM39.6667 11.9615C39.6473 10.775 39.229 9.83156 38.4023 9.11185C37.5756 8.40185 36.5544 8.042 35.329 8.042C34.2202 8.042 33.2671 8.40185 32.4793 9.11185C31.6915 9.80238 31.2246 10.7555 31.069 11.9615H39.6667ZM53.0301 5.33819C54.2556 5.33819 55.3449 5.59107 56.298 6.09681C57.2706 6.60256 58.0389 7.35146 58.5836 8.35322C59.1282 9.34527 59.4006 10.5513 59.4006 11.9615V21.1233H56.2202V12.4478C56.2202 11.057 55.8701 9.9969 55.1795 9.26746C54.489 8.51857 53.5359 8.13925 52.3298 8.13925C51.1238 8.13925 50.1707 8.51857 49.451 9.26746C48.7604 9.98718 48.4103 11.057 48.4103 12.4478V21.1233H45.2008V5.59107H48.4103V7.37091C48.9355 6.729 49.6066 6.23298 50.4138 5.87312C51.2405 5.52299 52.1159 5.33819 53.0301 5.33819ZM61.443 13.2843C61.443 11.7281 61.764 10.347 62.4059 9.14102C63.0672 7.93501 63.9426 7.01105 65.0513 6.34969C66.1795 5.66887 67.4147 5.33819 68.7666 5.33819C69.9921 5.33819 71.0522 5.58134 71.947 6.06764C72.8709 6.53448 73.6004 7.12776 74.145 7.84748V5.59107H77.3838V21.1136H74.145V18.7988C73.6004 19.5283 72.8612 20.141 71.9178 20.6273C70.9744 21.1136 69.9045 21.3568 68.7083 21.3568C67.3758 21.3568 66.1504 21.0164 65.0416 20.3453C63.9328 19.6547 63.0478 18.6919 62.3962 17.4664C61.764 16.2507 61.443 14.8501 61.443 13.2843ZM74.1548 13.3426C74.1548 12.2728 73.9311 11.3391 73.474 10.5513C73.046 9.76348 72.4722 9.16047 71.7525 8.75198C71.0425 8.3435 70.2644 8.12953 69.4377 8.12953C68.611 8.12953 67.8427 8.33377 67.1229 8.75198C66.4129 9.15075 65.8294 9.7343 65.3723 10.5318C64.9443 11.3002 64.7206 12.2241 64.7206 13.294C64.7206 14.3638 64.9346 15.3072 65.3723 16.1145C65.8197 16.9217 66.4032 17.5442 67.1229 17.9721C67.8524 18.3806 68.6304 18.5946 69.4377 18.5946C70.2644 18.5946 71.0328 18.3904 71.7525 17.9721C72.4625 17.5637 73.0363 16.9607 73.474 16.1729C73.9213 15.3559 74.1548 14.4125 74.1548 13.3426ZM99.6075 1.53536V4.15163H94.3944V21.1136H91.1848V4.16136H85.9426V1.54509H99.6075V1.53536ZM108.614 21.3762C107.145 21.3762 105.822 21.0455 104.636 20.3939C103.449 19.7131 102.525 18.7794 101.844 17.5734C101.164 16.3479 100.833 14.9474 100.833 13.3426C100.833 11.767 101.183 10.3665 101.874 9.14102C102.564 7.91556 103.517 6.98187 104.723 6.32051C105.929 5.65915 107.271 5.33819 108.75 5.33819C110.228 5.33819 111.58 5.66887 112.776 6.32051C113.982 6.98187 114.926 7.91556 115.626 9.14102C116.317 10.3665 116.667 11.7573 116.667 13.3426C116.667 14.9279 116.307 16.3187 115.597 17.5442C114.887 18.7697 113.905 19.7131 112.669 20.3939C111.454 21.0455 110.102 21.3762 108.614 21.3762ZM108.614 18.5849C109.44 18.5849 110.209 18.3904 110.928 17.9916C111.658 17.5928 112.251 17.0093 112.708 16.2118C113.156 15.424 113.389 14.4611 113.389 13.3329C113.389 12.2047 113.175 11.2613 112.737 10.4832C112.31 9.6954 111.736 9.10212 111.016 8.70336C110.306 8.30459 109.528 8.11008 108.701 8.11008C107.874 8.11008 107.106 8.30459 106.386 8.70336C105.696 9.10212 105.142 9.68567 104.723 10.4832C104.315 11.2515 104.101 12.2047 104.101 13.3329C104.101 15.0057 104.519 16.2993 105.365 17.2233C106.241 18.1375 107.32 18.5849 108.614 18.5849ZM125.595 21.3762C124.126 21.3762 122.804 21.0455 121.617 20.3939C120.431 19.7131 119.507 18.7794 118.826 17.5734C118.145 16.3479 117.814 14.9474 117.814 13.3426C117.814 11.767 118.164 10.3665 118.855 9.14102C119.546 7.91556 120.499 6.98187 121.705 6.32051C122.911 5.65915 124.253 5.33819 125.731 5.33819C127.219 5.33819 128.561 5.66887 129.758 6.32051C130.964 6.98187 131.907 7.91556 132.607 9.14102C133.298 10.3665 133.648 11.7573 133.648 13.3426C133.648 14.9279 133.288 16.3187 132.578 17.5442C131.868 18.7697 130.886 19.7131 129.651 20.3939C128.435 21.0455 127.083 21.3762 125.595 21.3762ZM125.595 18.5849C126.422 18.5849 127.19 18.3904 127.91 17.9916C128.639 17.5928 129.233 17.0093 129.69 16.2118C130.137 15.424 130.37 14.4611 130.37 13.3329C130.37 12.2047 130.157 11.2613 129.719 10.4832C129.291 9.6954 128.717 9.10212 127.997 8.70336C127.287 8.30459 126.509 8.11008 125.683 8.11008C124.856 8.11008 124.088 8.30459 123.368 8.70336C122.677 9.10212 122.123 9.68567 121.705 10.4832C121.296 11.2515 121.082 12.2047 121.082 13.3329C121.082 15.0057 121.5 16.2993 122.347 17.2233C123.222 18.1375 124.302 18.5849 125.595 18.5849ZM139.056 0.270996V21.1233H135.846V0.270996H139.056ZM147.926 21.3762C146.7 21.3762 145.601 21.1622 144.629 20.7246C143.666 20.2772 142.907 19.6742 142.343 18.9253C141.779 18.1569 141.477 17.3011 141.439 16.3576H144.765C144.823 17.019 145.134 17.5734 145.699 18.0208C146.282 18.4487 147.002 18.6724 147.867 18.6724C148.772 18.6724 149.462 18.5071 149.949 18.1667C150.454 17.8068 150.707 17.3594 150.707 16.8148C150.707 16.2312 150.425 15.8033 149.861 15.5212C149.317 15.2392 148.441 14.9279 147.245 14.5875C146.078 14.2666 145.134 13.9553 144.395 13.6538C143.666 13.3523 143.024 12.8952 142.479 12.2728C141.954 11.6503 141.691 10.8333 141.691 9.82183C141.691 8.99513 141.935 8.24624 142.421 7.56543C142.907 6.87489 143.607 6.33023 144.502 5.93147C145.426 5.53271 146.477 5.33819 147.663 5.33819C149.433 5.33819 150.844 5.78559 151.923 6.69009C153.012 7.57515 153.596 8.78116 153.674 10.3276H150.464C150.406 9.63704 150.124 9.08267 149.618 8.66445C149.112 8.25596 148.422 8.042 147.556 8.042C146.71 8.042 146.058 8.19761 145.611 8.51856C145.164 8.83952 144.93 9.25773 144.93 9.78293C144.93 10.1914 145.076 10.5416 145.378 10.8236C145.679 11.1057 146.049 11.3294 146.477 11.5044C146.905 11.6503 147.546 11.8546 148.393 12.0977C149.521 12.3992 150.445 12.7104 151.155 13.0314C151.884 13.3329 152.516 13.7803 153.042 14.3833C153.567 14.9863 153.839 15.7838 153.859 16.7759C153.859 17.6609 153.615 18.4487 153.129 19.1393C152.643 19.8298 151.943 20.3744 151.048 20.7732C150.172 21.1817 149.132 21.3762 147.926 21.3762Z" fill="black"/>
</svg>
