<svg width="48" height="48" viewBox="0 0 48 48" fill="none" xmlns="http://www.w3.org/2000/svg">
<circle cx="24" cy="24" r="24" fill="#F5F8FF"/>
<rect width="24" height="24" transform="translate(12 12)" fill="#F5F8FF"/>
<path d="M29.2 29.1999V25.4641C29.2 23.6281 28.8048 22.2256 26.6628 22.2256C25.63 22.2256 24.9415 22.7866 24.661 23.3221H24.6355V22.3914H22.6083V29.1999H24.7248V25.8211C24.7248 24.9286 24.8905 24.0744 25.987 24.0744C27.0708 24.0744 27.0835 25.0816 27.0835 25.8721V29.1871H29.2V29.1999Z" fill="#151515"/>
<path d="M19.1657 22.3916H21.2822V29.2001H19.1657V22.3916Z" fill="#151515"/>
<path d="M20.224 19C19.5482 19 19 19.5482 19 20.224C19 20.8997 19.5482 21.4607 20.224 21.4607C20.8997 21.4607 21.448 20.8997 21.448 20.224C21.448 19.5482 20.8997 19 20.224 19Z" fill="#151515"/>
</svg>
